<svg width="128" height="128" viewBox="0 0 128 128" fill="none" xmlns="http://www.w3.org/2000/svg">
<rect width="128" height="128" fill="#D1D5DB"/>
<g filter="url(#filter0_d_2136_125368)">
<rect x="8" y="8" width="112" height="112" rx="6" fill="#F9FAFB"/>
</g>
<path d="M8 17.6C8 14.2397 8 12.5595 8.65396 11.2761C9.2292 10.1471 10.1471 9.2292 11.2761 8.65396C12.5595 8 14.2397 8 17.6 8H46V70.4C46 73.7603 46 75.4405 45.346 76.7239C44.7708 77.8529 43.8529 78.7708 42.7239 79.346C41.4405 80 39.7603 80 36.4 80H8V17.6Z" fill="#E5E7EB"/>
<path d="M70 36C70 34.8954 70.8954 34 72 34H108C109.105 34 110 34.8954 110 36V38C110 39.1046 109.105 40 108 40H72C70.8954 40 70 39.1046 70 38V36Z" fill="#D1D5DB"/>
<path d="M70 45C70 43.8954 70.8954 43 72 43H108C109.105 43 110 43.8954 110 45V47C110 48.1046 109.105 49 108 49H72C70.8954 49 70 48.1046 70 47V45Z" fill="#D1D5DB"/>
<path d="M70 54C70 52.8954 70.8954 52 72 52H85C86.1046 52 87 52.8954 87 54V56C87 57.1046 86.1046 58 85 58H72C70.8954 58 70 57.1046 70 56V54Z" fill="#D1D5DB"/>
<path d="M90 54C90 52.8954 90.8954 52 92 52H105C106.105 52 107 52.8954 107 54V56C107 57.1046 106.105 58 105 58H92C90.8954 58 90 57.1046 90 56V54Z" fill="#D1D5DB"/>
<path fill-rule="evenodd" clip-rule="evenodd" d="M70 29C70 28.4477 70.4477 28 71 28H87C87.5523 28 88 28.4477 88 29C88 29.5523 87.5523 30 87 30H71C70.4477 30 70 29.5523 70 29Z" fill="#D1D5DB"/>
<path d="M70 64C70 62.8954 70.8954 62 72 62H96C97.1046 62 98 62.8954 98 64V66C98 67.1046 97.1046 68 96 68H72C70.8954 68 70 67.1046 70 66V64Z" fill="#9CA3AF"/>
<circle cx="17" cy="16" r="3" fill="#9CA3AF"/>
<path fill-rule="evenodd" clip-rule="evenodd" d="M97 16C97 14.8954 98.066 14 99.381 14H111.619C112.934 14 114 14.8954 114 16C114 17.1046 112.934 18 111.619 18H99.381C98.066 18 97 17.1046 97 16Z" fill="#D1D5DB"/>
<path d="M30 32.4C30 30.1598 30 29.0397 30.436 28.184C30.8195 27.4314 31.4314 26.8195 32.184 26.436C33.0397 26 34.1598 26 36.4 26H55.6C57.8402 26 58.9603 26 59.816 26.436C60.5686 26.8195 61.1805 27.4314 61.564 28.184C62 29.0397 62 30.1598 62 32.4V67.6C62 69.8402 62 70.9603 61.564 71.816C61.1805 72.5686 60.5686 73.1805 59.816 73.564C58.9603 74 57.8402 74 55.6 74H36.4C34.1598 74 33.0397 74 32.184 73.564C31.4314 73.1805 30.8195 72.5686 30.436 71.816C30 70.9603 30 69.8402 30 67.6V32.4Z" fill="#D1D5DB"/>
<path d="M28 30.4C28 28.1598 28 27.0397 28.436 26.184C28.8195 25.4314 29.4314 24.8195 30.184 24.436C31.0397 24 32.1598 24 34.4 24H53.6C55.8402 24 56.9603 24 57.816 24.436C58.5686 24.8195 59.1805 25.4314 59.564 26.184C60 27.0397 60 28.1598 60 30.4V65.6C60 67.8402 60 68.9603 59.564 69.816C59.1805 70.5686 58.5686 71.1805 57.816 71.564C56.9603 72 55.8402 72 53.6 72H34.4C32.1598 72 31.0397 72 30.184 71.564C29.4314 71.1805 28.8195 70.5686 28.436 69.816C28 68.9603 28 67.8402 28 65.6V30.4Z" fill="white"/>
<path fill-rule="evenodd" clip-rule="evenodd" d="M33 57C33 56.4477 33.2897 56 33.6471 56H54.3529C54.7103 56 55 56.4477 55 57C55 57.5523 54.7103 58 54.3529 58H33.6471C33.2897 58 33 57.5523 33 57Z" fill="#D1D5DB"/>
<path fill-rule="evenodd" clip-rule="evenodd" d="M36 62C36 61.4477 36.2927 61 36.6538 61H52.3462C52.7073 61 53 61.4477 53 62C53 62.5523 52.7073 63 52.3462 63H36.6538C36.2927 63 36 62.5523 36 62Z" fill="#D1D5DB"/>
<path d="M43.0653 34.4585C43.3921 33.599 44.6079 33.599 44.9347 34.4585L47.6838 41.6889C47.7218 41.789 47.7757 41.8823 47.8434 41.9653L52.7306 47.9613C53.3115 48.674 52.7036 49.727 51.7959 49.5803L44.1596 48.3458C44.0539 48.3287 43.9461 48.3287 43.8404 48.3458L36.2041 49.5803C35.2964 49.727 34.6885 48.674 35.2694 47.9613L40.1566 41.9653C40.2243 41.8823 40.2782 41.789 40.3162 41.6889L43.0653 34.4585Z" fill="#D1D5DB"/>
<path fill-rule="evenodd" clip-rule="evenodd" d="M70 96C70 95.4477 70.4477 95 71 95H99C99.5523 95 100 95.4477 100 96C100 96.5523 99.5523 97 99 97H71C70.4477 97 70 96.5523 70 96Z" fill="#D1D5DB"/>
<path fill-rule="evenodd" clip-rule="evenodd" d="M70 100C70 99.4477 70.4477 99 71 99H92C92.5523 99 93 99.4477 93 100C93 100.552 92.5523 101 92 101H71C70.4477 101 70 100.552 70 100Z" fill="#D1D5DB"/>
<path fill-rule="evenodd" clip-rule="evenodd" d="M76 105C76 104.448 76.4477 104 77 104H84C84.5523 104 85 104.448 85 105C85 105.552 84.5523 106 84 106H77C76.4477 106 76 105.552 76 105Z" fill="#D1D5DB"/>
<circle cx="72" cy="105" r="2" fill="#D1D5DB"/>
<path fill-rule="evenodd" clip-rule="evenodd" d="M28 96C28 95.4477 28.4477 95 29 95H57C57.5523 95 58 95.4477 58 96C58 96.5523 57.5523 97 57 97H29C28.4477 97 28 96.5523 28 96Z" fill="#D1D5DB"/>
<path fill-rule="evenodd" clip-rule="evenodd" d="M28 100C28 99.4477 28.4477 99 29 99H50C50.5523 99 51 99.4477 51 100C51 100.552 50.5523 101 50 101H29C28.4477 101 28 100.552 28 100Z" fill="#D1D5DB"/>
<path fill-rule="evenodd" clip-rule="evenodd" d="M34 105C34 104.448 34.4477 104 35 104H42C42.5523 104 43 104.448 43 105C43 105.552 42.5523 106 42 106H35C34.4477 106 34 105.552 34 105Z" fill="#D1D5DB"/>
<circle cx="30" cy="105" r="2" fill="#D1D5DB"/>
<defs>
<filter id="filter0_d_2136_125368" x="6" y="8" width="116" height="118" filterUnits="userSpaceOnUse" color-interpolation-filters="sRGB">
<feFlood flood-opacity="0" result="BackgroundImageFix"/>
<feColorMatrix in="SourceAlpha" type="matrix" values="0 0 0 0 0 0 0 0 0 0 0 0 0 0 0 0 0 0 127 0" result="hardAlpha"/>
<feMorphology radius="4" operator="erode" in="SourceAlpha" result="effect1_dropShadow_2136_125368"/>
<feOffset dy="4"/>
<feGaussianBlur stdDeviation="3"/>
<feComposite in2="hardAlpha" operator="out"/>
<feColorMatrix type="matrix" values="0 0 0 0 0 0 0 0 0 0 0 0 0 0 0 0 0 0 0.16 0"/>
<feBlend mode="normal" in2="BackgroundImageFix" result="effect1_dropShadow_2136_125368"/>
<feBlend mode="normal" in="SourceGraphic" in2="effect1_dropShadow_2136_125368" result="shape"/>
</filter>
</defs>
</svg>
