<svg width="40" height="40" viewBox="0 0 40 40" fill="none" xmlns="http://www.w3.org/2000/svg">
<rect width="40" height="40" rx="2" fill="white"/>
<g clip-path="url(#clip0_3379_127452)">
<path d="M10.2273 23H29.7629C30.9992 23 32.0001 24.0008 32.0001 25.2372V32.6942C32.0001 33.9305 30.9993 34.9314 29.7629 34.9314H22.7573L23.7189 37.2862L19.4899 34.9314H10.2372C9.00095 34.9314 8.00007 33.9306 8.00007 32.6942V25.2372C7.99026 24.0106 8.99101 23 10.2273 23Z" fill="#8054B3"/>
<path d="M9.36707 25.0387C9.50365 24.8533 9.70853 24.7558 9.9817 24.7363C10.4793 24.6972 10.7622 24.9314 10.8305 25.4387C11.1329 27.4778 11.4646 29.2045 11.8159 30.6192L13.9525 26.5509C14.1476 26.1802 14.3915 25.9851 14.6842 25.9656C15.1134 25.9363 15.3768 26.2095 15.4842 26.7851C15.7281 28.0827 16.0403 29.1851 16.411 30.1217C16.6647 27.6436 17.0939 25.8583 17.6988 24.7558C17.8452 24.4826 18.0598 24.346 18.3427 24.3265C18.5671 24.307 18.772 24.3753 18.9574 24.5216C19.1427 24.668 19.2403 24.8533 19.2598 25.0777C19.2696 25.2533 19.2403 25.3997 19.1623 25.546C18.7818 26.2485 18.4696 27.429 18.2159 29.0679C17.972 30.6582 17.8842 31.8972 17.9428 32.785C17.9623 33.0289 17.9233 33.2436 17.8257 33.4289C17.7086 33.6436 17.533 33.7606 17.3086 33.7801C17.055 33.7997 16.7916 33.6826 16.5379 33.4192C15.6306 32.4923 14.9086 31.107 14.3818 29.263C13.7477 30.5118 13.2794 31.4484 12.977 32.0728C12.4014 33.1752 11.9136 33.7411 11.5038 33.7704C11.2404 33.7899 11.016 33.5655 10.8209 33.0972C10.3233 31.8191 9.78671 29.3508 9.21109 25.6923C9.17206 25.4387 9.2306 25.2143 9.36718 25.0387L9.36707 25.0387ZM30.3333 26.5704C29.9821 25.9557 29.465 25.585 28.7724 25.4386C28.587 25.3996 28.4114 25.3801 28.2456 25.3801C27.309 25.3801 26.548 25.8679 25.9529 26.8435C25.4456 27.6728 25.1919 28.5899 25.1919 29.5947C25.1919 30.3459 25.348 30.9898 25.6602 31.5264C26.0114 32.1411 26.5285 32.5118 27.2212 32.6582C27.4065 32.6972 27.5821 32.7167 27.748 32.7167C28.6943 32.7167 29.4553 32.2289 30.0406 31.2533C30.548 30.4143 30.8016 29.4972 30.8016 28.4923C30.8114 27.7314 30.6455 27.0973 30.3333 26.5704ZM29.1041 29.2728C28.9675 29.9167 28.7236 30.3947 28.3626 30.7168C28.0797 30.9704 27.8163 31.0777 27.5724 31.029C27.3382 30.9802 27.1431 30.7753 26.9968 30.3948C26.8797 30.0924 26.8212 29.7899 26.8212 29.507C26.8212 29.2631 26.8407 29.0192 26.8894 28.7948C26.9772 28.3948 27.1431 28.0046 27.4065 27.6338C27.7285 27.1558 28.0699 26.9606 28.4212 27.0289C28.6553 27.0777 28.8504 27.2826 28.9968 27.6631C29.1139 27.9655 29.1724 28.268 29.1724 28.5509C29.1724 28.8045 29.1529 29.0484 29.1041 29.2728ZM24.226 26.5704C23.8748 25.9557 23.3479 25.585 22.665 25.4386C22.4797 25.3996 22.3041 25.3801 22.1382 25.3801C21.2016 25.3801 20.4407 25.8679 19.8456 26.8435C19.3382 27.6728 19.0846 28.5899 19.0846 29.5947C19.0846 30.3459 19.2407 30.9898 19.5529 31.5264C19.9041 32.1411 20.4212 32.5118 21.1138 32.6582C21.2992 32.6972 21.4748 32.7167 21.6406 32.7167C22.5869 32.7167 23.3479 32.2289 23.9333 31.2533C24.4406 30.4143 24.6943 29.4972 24.6943 28.4923C24.6943 27.7314 24.5382 27.0973 24.226 26.5704ZM22.987 29.2728C22.8504 29.9167 22.6065 30.3947 22.2455 30.7168C21.9626 30.9704 21.6992 31.0777 21.4553 31.029C21.2211 30.9802 21.026 30.7753 20.8797 30.3948C20.7626 30.0924 20.7041 29.7899 20.7041 29.507C20.7041 29.2631 20.7236 29.0192 20.7723 28.7948C20.8602 28.3948 21.026 28.0046 21.2894 27.6338C21.6114 27.1558 21.9528 26.9606 22.3041 27.0289C22.5382 27.0777 22.7333 27.2826 22.8797 27.6631C22.9968 27.9655 23.0553 28.268 23.0553 28.5509C23.065 28.8045 23.0358 29.0484 22.987 29.2728Z" fill="white"/>
</g>
<g clip-path="url(#clip1_3379_127452)">
<path d="M33.3175 4.19124L32.312 10.4937C32.3082 10.5168 32.3096 10.5405 32.3159 10.5631C32.3223 10.5856 32.3336 10.6065 32.3489 10.6243C32.3642 10.6421 32.3833 10.6563 32.4047 10.6659C32.4261 10.6756 32.4494 10.6805 32.4729 10.6802H33.6629C33.7049 10.6805 33.7457 10.6659 33.7777 10.6389C33.8098 10.6119 33.8312 10.5743 33.8379 10.5329L34.8435 4.2305C34.8472 4.20736 34.8459 4.18367 34.8395 4.16111C34.8331 4.13854 34.8219 4.11764 34.8065 4.09987C34.7912 4.0821 34.7722 4.06789 34.7507 4.05823C34.7293 4.04858 34.706 4.04371 34.6825 4.04398H33.4925C33.4504 4.04315 33.4094 4.05763 33.3772 4.08473C33.345 4.11183 33.3238 4.14969 33.3175 4.19124ZM32.0468 6.03044H30.9177C30.8757 6.03003 30.835 6.04464 30.803 6.07162C30.7709 6.0986 30.7496 6.13615 30.743 6.17746L30.7056 6.40948C30.7056 6.40948 29.8286 5.46088 28.2759 6.10195C27.3851 6.46899 26.9575 7.22732 26.7756 7.78288C26.7756 7.78288 26.1981 9.47131 27.5042 10.4007C27.5042 10.4007 28.7153 11.2945 30.079 10.3457L30.0555 10.4937C30.05 10.5284 30.0561 10.564 30.0729 10.595C30.0896 10.626 30.1161 10.6506 30.1482 10.6652C30.1695 10.6752 30.1928 10.6802 30.2164 10.6802H31.3463C31.3884 10.681 31.4294 10.6665 31.4615 10.6394C31.4937 10.6123 31.5149 10.5745 31.5212 10.5329L32.2085 6.21696C32.2123 6.19384 32.211 6.17016 32.2045 6.14763C32.198 6.1251 32.1866 6.10429 32.1711 6.0867C32.1558 6.06877 32.1367 6.05442 32.1153 6.04465C32.0938 6.03489 32.0704 6.0302 32.0468 6.03044ZM30.3853 8.4157C30.3413 8.71725 30.1884 8.9924 29.9555 9.18953C29.7215 9.38738 29.4238 9.4942 29.1171 9.49031C28.9968 9.49171 28.877 9.47433 28.7622 9.4388C28.2747 9.28379 27.9965 8.82024 28.0764 8.31769C28.1208 8.01628 28.2738 7.74135 28.5068 7.54435C28.7405 7.3464 29.038 7.23924 29.3446 7.24257C29.4649 7.24133 29.5847 7.25888 29.6996 7.29458C30.1901 7.44859 30.467 7.91289 30.3866 8.41595H30.3853V8.4157ZM24.3559 8.53496C24.9682 8.53496 25.5605 8.31794 26.0257 7.92339C26.4899 7.53018 26.7972 6.98385 26.8919 6.38373C27.0896 5.13535 26.1049 4.04573 24.7088 4.04573H22.4598C22.4178 4.04533 22.3771 4.05997 22.345 4.087C22.313 4.11403 22.2917 4.15164 22.2851 4.193L21.2793 10.4954C21.2738 10.5302 21.2799 10.5658 21.2967 10.5968C21.3134 10.6277 21.3399 10.6524 21.372 10.6669C21.3936 10.6769 21.4166 10.6819 21.4402 10.6819H22.631C22.673 10.6823 22.7137 10.6677 22.7458 10.6407C22.7778 10.6136 22.7991 10.576 22.8057 10.5347L23.1009 8.68397C23.1071 8.64238 23.1283 8.60446 23.1605 8.57731C23.1927 8.55016 23.2337 8.53564 23.2759 8.53646L24.3559 8.53496ZM25.3519 6.32697C25.2785 6.78852 24.9181 7.12831 24.2286 7.12831H23.3471L23.6148 5.44988H24.4805C25.1933 5.45113 25.4254 5.86742 25.3519 6.32822V6.32697Z" fill="#0070E0"/>
<path d="M19.9223 6.13738L18.5603 8.41387L17.869 6.15413C17.8582 6.11807 17.8359 6.0865 17.8055 6.06417C17.7751 6.04185 17.7383 6.02998 17.7006 6.03037H16.4714C16.4396 6.02994 16.4088 6.04099 16.3845 6.06148C16.3602 6.08197 16.3442 6.11053 16.3394 6.14188C16.3364 6.16267 16.3385 6.18387 16.3456 6.20364L17.5843 10.01L16.4639 11.8037C16.4544 11.8185 16.448 11.835 16.4451 11.8524C16.4423 11.8697 16.443 11.8874 16.4472 11.9044C16.4514 11.9215 16.4591 11.9375 16.4697 11.9515C16.4803 11.9654 16.4937 11.9771 16.509 11.9858C16.5295 11.9975 16.5528 12.0035 16.5765 12.0033H17.9003C17.9381 12.0034 17.9753 11.9938 18.0083 11.9754C18.0412 11.957 18.0689 11.9304 18.0886 11.8982L21.5484 6.23089C21.561 6.21116 21.5678 6.18838 21.5683 6.16502C21.5688 6.14166 21.5629 6.11861 21.5512 6.09838C21.5395 6.07807 21.5226 6.06126 21.5021 6.0497C21.4817 6.03813 21.4586 6.03224 21.4351 6.03262H20.1117C20.0738 6.03227 20.0364 6.04174 20.0032 6.0601C19.97 6.07846 19.9421 6.10508 19.9223 6.13738ZM15.7747 6.03037H14.6445C14.6025 6.02997 14.5617 6.04464 14.5296 6.07171C14.4975 6.09879 14.4762 6.13647 14.4696 6.17789L14.433 6.40966C14.433 6.40966 13.5552 5.46106 12.0025 6.10213C11.112 6.46917 10.6841 7.2275 10.5029 7.78306C10.5029 7.78306 9.92496 9.47149 11.2308 10.4008C11.2308 10.4008 12.4421 11.2947 13.8059 10.3458L13.7823 10.4938C13.7768 10.5286 13.7828 10.5643 13.7996 10.5953C13.8164 10.6262 13.8429 10.6509 13.8751 10.6654C13.8964 10.6754 13.9197 10.6804 13.9432 10.6804H15.0731C15.1151 10.6807 15.1557 10.666 15.1878 10.639C15.2198 10.612 15.2411 10.5744 15.2478 10.5331L15.9353 6.21714C15.9409 6.18232 15.9349 6.14663 15.9181 6.11559C15.9013 6.08454 15.8748 6.05987 15.8426 6.04537C15.8212 6.03555 15.7982 6.03044 15.7747 6.03037ZM14.1129 8.41612C14.0684 8.71731 13.9155 8.99203 13.6828 9.18896C13.449 9.38678 13.1515 9.49385 12.8449 9.49049C12.7248 9.49182 12.6052 9.47444 12.4905 9.43898C12.0033 9.28397 11.7253 8.82042 11.8053 8.31761C11.8498 8.01555 12.0034 7.74011 12.2371 7.54303C12.4718 7.34509 12.7702 7.23844 13.0775 7.24275C13.1978 7.2415 13.3179 7.259 13.4327 7.29475C13.9182 7.44877 14.1946 7.91282 14.1144 8.41612H14.1129ZM8.08375 8.53514C8.69503 8.53482 9.2863 8.3178 9.75202 7.92282C10.2158 7.52962 10.5228 6.98348 10.6172 6.38366C10.8152 5.13552 9.83022 4.04591 8.43465 4.04591H6.1854C6.14343 4.04549 6.10271 4.06009 6.07061 4.08706C6.03851 4.11404 6.01717 4.1516 6.01046 4.19292L5.00789 10.4936C5.00229 10.5284 5.00834 10.5641 5.0251 10.5951C5.04186 10.6262 5.0684 10.6509 5.10063 10.6654C5.12193 10.6751 5.14524 10.6804 5.1688 10.6804H6.35885C6.40089 10.6808 6.44167 10.6661 6.47378 10.639C6.50589 10.6119 6.52719 10.5743 6.53379 10.5329L6.82855 8.68215C6.83481 8.6406 6.85601 8.60274 6.88821 8.57564C6.9204 8.54854 6.96138 8.53406 7.00349 8.53489L8.08375 8.53514ZM9.0798 6.3269C9.00636 6.78845 8.64619 7.12824 7.95668 7.12824H7.07518L7.34236 5.44981H8.20807C8.92114 5.45106 9.15299 5.8676 9.0798 6.32815V6.3269Z" fill="#003087"/>
</g>
<path d="M8.2832 18V15.332H9.45508C9.72461 15.332 9.9375 15.4128 10.0938 15.5742C10.25 15.7344 10.3281 15.9323 10.3281 16.168C10.3281 16.4036 10.2493 16.6022 10.0918 16.7637C9.93555 16.9238 9.72331 17.0039 9.45508 17.0039H8.75195V18H8.2832ZM8.75195 16.5918H9.39258C9.52539 16.5918 9.63411 16.5527 9.71875 16.4746C9.80469 16.3965 9.84766 16.2943 9.84766 16.168C9.84766 16.0417 9.80469 15.9395 9.71875 15.8613C9.63411 15.7832 9.52539 15.7441 9.39258 15.7441H8.75195V16.5918ZM10.5078 17.4082C10.5078 17.3014 10.5273 17.207 10.5664 17.125C10.6068 17.0417 10.6595 16.9759 10.7246 16.9277C10.791 16.8783 10.8626 16.8411 10.9395 16.8164C11.0176 16.7917 11.0977 16.7793 11.1797 16.7793C11.4531 16.7793 11.6608 16.862 11.8027 17.0273V16.7402C11.8027 16.6296 11.7611 16.5423 11.6777 16.4785C11.5957 16.4134 11.487 16.3809 11.3516 16.3809C11.1354 16.3809 10.9447 16.4616 10.7793 16.623L10.6074 16.332C10.8275 16.1237 11.0983 16.0195 11.4199 16.0195C11.5319 16.0195 11.6341 16.0326 11.7266 16.0586C11.8203 16.0833 11.9049 16.1224 11.9805 16.1758C12.056 16.2279 12.1152 16.3008 12.1582 16.3945C12.2012 16.487 12.2227 16.5957 12.2227 16.7207V18H11.8027V17.793C11.7298 17.875 11.6393 17.9382 11.5312 17.9824C11.4245 18.0267 11.3073 18.0488 11.1797 18.0488C11.099 18.0488 11.0195 18.0352 10.9414 18.0078C10.8633 17.9805 10.791 17.9414 10.7246 17.8906C10.6595 17.8385 10.6068 17.7708 10.5664 17.6875C10.5273 17.6042 10.5078 17.5111 10.5078 17.4082ZM10.9316 17.416C10.9316 17.5189 10.9701 17.6022 11.0469 17.666C11.125 17.7285 11.224 17.7598 11.3438 17.7598C11.4388 17.7598 11.5273 17.7428 11.6094 17.709C11.6914 17.6738 11.7559 17.6243 11.8027 17.5605V17.2676C11.7559 17.2038 11.6914 17.1549 11.6094 17.1211C11.5273 17.0859 11.4388 17.0684 11.3438 17.0684C11.224 17.0684 11.125 17.1003 11.0469 17.1641C10.9701 17.2266 10.9316 17.3105 10.9316 17.416ZM12.4883 16.0684H12.9355L13.5 17.5156L14.0645 16.0684H14.5156L13.584 18.3477C13.5202 18.5039 13.4336 18.6146 13.3242 18.6797C13.2148 18.7461 13.0801 18.7806 12.9199 18.7832C12.8327 18.7832 12.7539 18.7741 12.6836 18.7559L12.748 18.3809C12.7962 18.4017 12.8496 18.4121 12.9082 18.4121C12.9772 18.4121 13.0332 18.3997 13.0762 18.375C13.1204 18.3503 13.1562 18.3066 13.1836 18.2441L13.2793 18.0234L12.4883 16.0684ZM14.7793 18V16.0684H15.1992V16.332C15.2474 16.2591 15.3307 16.1888 15.4492 16.1211C15.569 16.0534 15.6953 16.0195 15.8281 16.0195C15.9674 16.0195 16.0814 16.0514 16.1699 16.1152C16.2598 16.179 16.3216 16.2663 16.3555 16.377C16.4167 16.2806 16.5072 16.1973 16.627 16.127C16.748 16.0553 16.8763 16.0195 17.0117 16.0195C17.1914 16.0195 17.3288 16.0684 17.4238 16.166C17.5202 16.2637 17.5684 16.4095 17.5684 16.6035V18H17.1484V16.7402C17.1484 16.6322 17.1224 16.5475 17.0703 16.4863C17.0195 16.4238 16.9401 16.3926 16.832 16.3926C16.7448 16.3926 16.6602 16.4186 16.5781 16.4707C16.4961 16.5215 16.4316 16.5807 16.3848 16.6484V18H15.9629V16.7402C15.9629 16.5085 15.8568 16.3926 15.6445 16.3926C15.5586 16.3926 15.4746 16.4186 15.3926 16.4707C15.3118 16.5215 15.2474 16.582 15.1992 16.6523V18H14.7793ZM17.9922 17.0312C17.9922 16.8464 18.0332 16.6771 18.1152 16.5234C18.1986 16.3685 18.3158 16.2461 18.4668 16.1562C18.6178 16.0651 18.7865 16.0195 18.9727 16.0195C19.2591 16.0195 19.4889 16.1185 19.6621 16.3164C19.8366 16.513 19.9238 16.765 19.9238 17.0723V17.1719H18.4316C18.4486 17.3242 18.5111 17.4512 18.6191 17.5527C18.7285 17.653 18.8711 17.7031 19.0469 17.7031C19.1445 17.7031 19.2435 17.6849 19.3438 17.6484C19.4453 17.6107 19.5293 17.5586 19.5957 17.4922L19.7871 17.7676C19.6921 17.8587 19.5768 17.9284 19.4414 17.9766C19.306 18.0247 19.1602 18.0488 19.0039 18.0488C18.7109 18.0488 18.4688 17.9551 18.2773 17.7676C18.0872 17.5788 17.9922 17.3333 17.9922 17.0312ZM18.4277 16.877H19.5156C19.513 16.8171 19.5007 16.7585 19.4785 16.7012C19.4577 16.6426 19.4264 16.5872 19.3848 16.5352C19.3431 16.4831 19.2865 16.4414 19.2148 16.4102C19.1445 16.3789 19.0638 16.3633 18.9727 16.3633C18.8867 16.3633 18.8086 16.3789 18.7383 16.4102C18.6693 16.4401 18.6133 16.4811 18.5703 16.5332C18.5286 16.584 18.4954 16.6387 18.4707 16.6973C18.4473 16.7546 18.4329 16.8145 18.4277 16.877ZM20.3379 18V16.0684H20.7578V16.332C20.8307 16.2461 20.9271 16.1725 21.0469 16.1113C21.1667 16.0501 21.2969 16.0195 21.4375 16.0195C21.6432 16.0195 21.7988 16.0729 21.9043 16.1797C22.0098 16.2865 22.0625 16.4401 22.0625 16.6406V18H21.6426V16.793C21.6426 16.6497 21.6087 16.5475 21.541 16.4863C21.4746 16.4238 21.3789 16.3926 21.2539 16.3926C21.1523 16.3926 21.0573 16.418 20.9688 16.4688C20.8802 16.5182 20.8099 16.5794 20.7578 16.6523V18H20.3379ZM22.3711 16.4355V16.0684H22.6914V15.5391H23.1113V16.0684H23.5039V16.4355H23.1113V17.4473C23.1113 17.515 23.1276 17.5703 23.1602 17.6133C23.1927 17.6549 23.2383 17.6758 23.2969 17.6758C23.3346 17.6758 23.3711 17.6693 23.4062 17.6562C23.4414 17.6419 23.4674 17.6257 23.4844 17.6074L23.584 17.9238C23.4967 18.0072 23.3646 18.0488 23.1875 18.0488C23.026 18.0488 22.903 18.0065 22.8184 17.9219C22.7337 17.8359 22.6914 17.7129 22.6914 17.5527V16.4355H22.3711ZM23.7168 17.748L23.9102 17.4434C23.9831 17.5176 24.0801 17.582 24.2012 17.6367C24.3236 17.6901 24.4447 17.7168 24.5645 17.7168C24.6868 17.7168 24.7806 17.6927 24.8457 17.6445C24.9121 17.5964 24.9453 17.5332 24.9453 17.4551C24.9453 17.4043 24.9238 17.362 24.8809 17.3281C24.8379 17.2943 24.7819 17.2682 24.7129 17.25C24.6452 17.2305 24.5697 17.2122 24.4863 17.1953C24.403 17.1784 24.3197 17.1569 24.2363 17.1309C24.153 17.1048 24.0768 17.0723 24.0078 17.0332C23.9401 16.9941 23.8848 16.9388 23.8418 16.8672C23.7988 16.7943 23.7773 16.7077 23.7773 16.6074C23.7773 16.4421 23.8451 16.3027 23.9805 16.1895C24.1159 16.0762 24.3014 16.0195 24.5371 16.0195C24.8327 16.0195 25.0833 16.1107 25.2891 16.293L25.1133 16.5879C25.0534 16.5189 24.972 16.4629 24.8691 16.4199C24.7676 16.377 24.6582 16.3555 24.541 16.3555C24.4316 16.3555 24.3444 16.3776 24.2793 16.4219C24.2142 16.4661 24.1816 16.5228 24.1816 16.5918C24.1816 16.6322 24.1979 16.6667 24.2305 16.6953C24.2643 16.724 24.3086 16.7461 24.3633 16.7617C24.418 16.7773 24.4805 16.7943 24.5508 16.8125C24.6211 16.8294 24.6927 16.8457 24.7656 16.8613C24.8385 16.8757 24.9102 16.8984 24.9805 16.9297C25.0508 16.9609 25.1133 16.9974 25.168 17.0391C25.2227 17.0794 25.2663 17.1348 25.2988 17.2051C25.3327 17.2754 25.3496 17.3561 25.3496 17.4473C25.3496 17.623 25.2786 17.7676 25.1367 17.8809C24.9948 17.9928 24.7975 18.0488 24.5449 18.0488C24.3796 18.0488 24.2246 18.0228 24.0801 17.9707C23.9368 17.9186 23.8158 17.8444 23.7168 17.748ZM26.8105 18V15.332H28.6387V15.7441H27.2793V16.4355H28.6113V16.8477H27.2793V18H26.8105ZM28.9258 17.0312C28.9258 16.8932 28.9492 16.763 28.9961 16.6406C29.043 16.5169 29.1081 16.4095 29.1914 16.3184C29.276 16.2259 29.3809 16.153 29.5059 16.0996C29.6309 16.0462 29.7682 16.0195 29.918 16.0195C30.1185 16.0195 30.2949 16.0658 30.4473 16.1582C30.6009 16.2507 30.7168 16.373 30.7949 16.5254C30.8743 16.6764 30.9141 16.8451 30.9141 17.0312C30.9141 17.2188 30.8743 17.3893 30.7949 17.543C30.7168 17.6953 30.6009 17.8177 30.4473 17.9102C30.2949 18.0026 30.1185 18.0488 29.918 18.0488C29.7682 18.0488 29.6309 18.0221 29.5059 17.9688C29.3809 17.9141 29.276 17.8411 29.1914 17.75C29.1081 17.6576 29.043 17.5495 28.9961 17.4258C28.9492 17.3021 28.9258 17.1706 28.9258 17.0312ZM29.3613 17.0312C29.3613 17.2109 29.4115 17.3633 29.5117 17.4883C29.612 17.6133 29.7474 17.6758 29.918 17.6758C30.0911 17.6758 30.2272 17.6139 30.3262 17.4902C30.4264 17.3652 30.4766 17.2122 30.4766 17.0312C30.4766 16.8529 30.4264 16.7018 30.3262 16.5781C30.2272 16.4544 30.0911 16.3926 29.918 16.3926C29.7474 16.3926 29.612 16.4544 29.5117 16.5781C29.4115 16.7018 29.3613 16.8529 29.3613 17.0312ZM31.3379 18V16.0684H31.7578V16.3516C31.8346 16.2552 31.9284 16.1764 32.0391 16.1152C32.1497 16.054 32.2656 16.0234 32.3867 16.0234V16.4395C32.3516 16.4316 32.3073 16.4277 32.2539 16.4277C32.1654 16.4277 32.071 16.4538 31.9707 16.5059C31.8704 16.5566 31.7995 16.6159 31.7578 16.6836V18H31.3379Z" fill="#225DAD"/>
<rect x="6.15" y="14.15" width="28.7" height="5.7" rx="0.85" stroke="#225DAD" stroke-width="0.3"/>
<defs>
<clipPath id="clip0_3379_127452">
<rect width="24" height="14.3438" fill="white" transform="translate(8 23)"/>
</clipPath>
<clipPath id="clip1_3379_127452">
<rect width="30" height="8.01047" fill="white" transform="translate(5 4)"/>
</clipPath>
</defs>
</svg>
