<svg width="40" height="40" viewBox="0 0 40 40" fill="none" xmlns="http://www.w3.org/2000/svg">
<rect width="40" height="40" fill="#8054B3"/>
<g clip-path="url(#clip0_3379_127413)">
<path d="M8.5985 12H31.3901C32.8324 12 34.0001 13.1676 34.0001 14.61V23.3099C34.0001 24.7522 32.8325 25.9199 31.3901 25.9199H23.2168L24.3387 28.6672L19.4049 25.9199H8.6101C7.16777 25.9199 6.00008 24.7524 6.00008 23.3099V14.61C5.98864 13.1791 7.15618 12 8.5985 12Z" fill="white"/>
<path d="M7.59426 14.3786C7.75361 14.1624 7.99264 14.0486 8.31134 14.0258C8.89182 13.9803 9.2219 14.2534 9.30158 14.8453C9.65443 17.2242 10.0414 19.2388 10.4512 20.8893L12.9439 16.1429C13.1715 15.7104 13.4561 15.4828 13.7975 15.46C14.2984 15.4259 14.6057 15.7446 14.7309 16.4161C15.0154 17.93 15.3797 19.2161 15.8122 20.3088C16.1081 17.4177 16.6089 15.3348 17.3147 14.0486C17.4854 13.7299 17.7358 13.5705 18.0659 13.5478C18.3277 13.525 18.5667 13.6047 18.783 13.7754C18.9992 13.9461 19.113 14.1624 19.1358 14.4242C19.1472 14.6291 19.113 14.7998 19.022 14.9705C18.5781 15.79 18.2138 17.1673 17.9179 19.0794C17.6334 20.9347 17.531 22.3802 17.5992 23.416C17.622 23.7006 17.5765 23.951 17.4627 24.1672C17.3261 24.4176 17.1212 24.5542 16.8594 24.577C16.5635 24.5998 16.2562 24.4632 15.9602 24.1559C14.9017 23.0745 14.0594 21.4583 13.4448 19.307C12.705 20.7639 12.1587 21.8567 11.8058 22.5851C11.1343 23.8713 10.5652 24.5314 10.0871 24.5656C9.77979 24.5883 9.518 24.3265 9.29036 23.7802C8.70988 22.2891 8.08385 19.4095 7.41228 15.1412C7.36676 14.8453 7.43505 14.5835 7.59439 14.3786L7.59426 14.3786ZM32.0549 16.1656C31.6451 15.4485 31.0419 15.016 30.2338 14.8452C30.0175 14.7997 29.8127 14.7769 29.6192 14.7769C28.5265 14.7769 27.6387 15.346 26.9444 16.4843C26.3525 17.4518 26.0566 18.5217 26.0566 19.694C26.0566 20.5704 26.2387 21.3216 26.6029 21.9477C27.0127 22.6647 27.6159 23.0973 28.424 23.268C28.6403 23.3136 28.8452 23.3363 29.0387 23.3363C30.1427 23.3363 31.0305 22.7672 31.7134 21.629C32.3053 20.6501 32.6012 19.5802 32.6012 18.4079C32.6126 17.5201 32.4191 16.7803 32.0549 16.1656ZM30.6208 19.3184C30.4614 20.0697 30.1769 20.6273 29.7557 21.003C29.4256 21.299 29.1183 21.4242 28.8338 21.3673C28.5606 21.3104 28.333 21.0713 28.1622 20.6274C28.0257 20.2746 27.9574 19.9217 27.9574 19.5917C27.9574 19.3071 27.9801 19.0226 28.037 18.7608C28.1395 18.2941 28.333 17.8388 28.6403 17.4063C29.0159 16.8486 29.4143 16.6209 29.824 16.7006C30.0972 16.7575 30.3249 16.9965 30.4956 17.4404C30.6322 17.7933 30.7005 18.1461 30.7005 18.4762C30.7005 18.7721 30.6777 19.0567 30.6208 19.3184ZM24.9297 16.1656C24.5199 15.4485 23.9053 15.016 23.1086 14.8452C22.8923 14.7997 22.6874 14.7769 22.4939 14.7769C21.4013 14.7769 20.5135 15.346 19.8192 16.4843C19.2273 17.4518 18.9314 18.5217 18.9314 19.694C18.9314 20.5704 19.1135 21.3216 19.4777 21.9477C19.8874 22.6647 20.4907 23.0973 21.2988 23.268C21.515 23.3136 21.7199 23.3363 21.9134 23.3363C23.0175 23.3363 23.9053 22.7672 24.5882 21.629C25.1801 20.6501 25.476 19.5802 25.476 18.4079C25.476 17.5201 25.2939 16.7803 24.9297 16.1656ZM23.4842 19.3184C23.3248 20.0697 23.0403 20.6273 22.6191 21.003C22.289 21.299 21.9817 21.4242 21.6972 21.3673C21.424 21.3104 21.1963 21.0713 21.0256 20.6274C20.889 20.2746 20.8207 19.9217 20.8207 19.5917C20.8207 19.3071 20.8435 19.0226 20.9004 18.7608C21.0029 18.2941 21.1964 17.8388 21.5037 17.4063C21.8793 16.8486 22.2776 16.6209 22.6874 16.7006C22.9606 16.7575 23.1883 16.9965 23.359 17.4404C23.4956 17.7933 23.5639 18.1461 23.5639 18.4762C23.5752 18.7721 23.5411 19.0567 23.4842 19.3184Z" fill="#8054B3"/>
</g>
<defs>
<clipPath id="clip0_3379_127413">
<rect width="28" height="16.7344" fill="white" transform="translate(6 12)"/>
</clipPath>
</defs>
</svg>
